<?xml version="1.0" encoding="utf-8"?>
<!-- Generator: Adobe Illustrator 21.0.0, SVG Export Plug-In . SVG Version: 6.00 Build 0)  -->
<svg version="1.1" id="Capa_1" xmlns="http://www.w3.org/2000/svg" xmlns:xlink="http://www.w3.org/1999/xlink" x="0px" y="0px"
	 viewBox="0 0 1366 768" style="enable-background:new 0 0 1366 768;" xml:space="preserve">
<style type="text/css">
	.st0{fill:#048BC7;}
	.st1{fill:#04B0C7;}
</style>
<g>
	<g>
		<path class="st0" d="M564,241.5c-200.5,0-363,49.4-363,110.3S363.5,462,564,462s363-49.4,363-110.3S764.5,241.5,564,241.5z
			 M564,460.4c-197.7,0-357.9-48.7-357.9-108.7S366.3,243.1,564,243.1s357.9,48.7,357.9,108.7S761.7,460.4,564,460.4z"/>
	</g>
	<circle class="st1" cx="564" cy="366.5" r="231.5"/>
	<g>
		<path class="st0" d="M770.1,261c0.4,0.7,0.7,1.4,1,2.1c91.2,19.7,150.7,52.1,150.7,88.6c0,60-160.2,108.7-357.9,108.7
			s-357.9-48.7-357.9-108.7c0-36.6,59.5-68.9,150.7-88.6c0.3-0.7,0.6-1.4,1-2.1C263.1,280.9,201,314.1,201,351.8
			C201,412.6,363.5,462,564,462s363-49.4,363-110.3C927,314.1,864.9,280.9,770.1,261z"/>
	</g>
</g>
</svg>
