<svg width="71" height="46" viewBox="0 0 71 46" fill="none" xmlns="http://www.w3.org/2000/svg">
<path d="M69.4514 21.3554C69.4514 21.4818 69.3923 21.7161 69.04 22.0638C68.6855 22.4136 68.1096 22.799 67.2783 23.1959C65.6203 23.9875 63.1571 24.7271 60.0328 25.358C53.8007 26.6165 45.1463 27.4022 35.556 27.4022C25.9656 27.4022 17.3112 26.6165 11.0791 25.358C7.95484 24.7271 5.49164 23.9875 3.83366 23.1959C3.00227 22.799 2.42636 22.4136 2.07192 22.0638C1.71956 21.7161 1.66055 21.4818 1.66055 21.3554C1.66055 21.229 1.71956 20.9947 2.07192 20.647C2.42636 20.2972 3.00227 19.9118 3.83366 19.5149C5.49164 18.7233 7.95484 17.9837 11.0791 17.3528C17.3112 16.0943 25.9656 15.3086 35.556 15.3086C45.1463 15.3086 53.8007 16.0943 60.0328 17.3528C63.1571 17.9837 65.6203 18.7233 67.2783 19.5149C68.1096 19.9118 68.6855 20.2972 69.04 20.647C69.3923 20.9947 69.4514 21.229 69.4514 21.3554Z" stroke="#0092A6" stroke-width="2"/>
<circle cx="35.556" cy="22.683" r="22.3797" fill="#04B0C7"/>
<path d="M68.9668 20.6786C68.9668 24.5704 54.8282 27.3173 35.556 27.3173C16.2838 27.3173 1.82126 24.6063 1.82126 20.7144" stroke="#0092A6" stroke-width="2"/>
<circle cx="9.05936" cy="24.767" r="2.08405" fill="#E3201B"/>
</svg>
