<svg width="83" height="80" viewBox="0 0 83 80" fill="none" xmlns="http://www.w3.org/2000/svg">
<path d="M75.4514 38.8344C75.4514 38.9608 75.3924 39.1951 75.04 39.5428C74.6856 39.8926 74.1097 40.278 73.2783 40.6749C71.6203 41.4665 69.1571 42.2061 66.0328 42.837C59.8007 44.0955 51.1463 44.8812 41.556 44.8812C31.9656 44.8812 23.3112 44.0955 17.0791 42.837C13.9549 42.2061 11.4917 41.4665 9.83367 40.6749C9.00228 40.278 8.42637 39.8926 8.07193 39.5428C7.71958 39.1951 7.66057 38.9608 7.66057 38.8344C7.66057 38.708 7.71958 38.4737 8.07193 38.126C8.42637 37.7762 9.00228 37.3908 9.83367 36.9939C11.4917 36.2023 13.9549 35.4627 17.0791 34.8318C23.3112 33.5733 31.9656 32.7876 41.556 32.7876C51.1463 32.7876 59.8007 33.5733 66.0328 34.8318C69.1571 35.4627 71.6203 36.2023 73.2783 36.9939C74.1097 37.3908 74.6856 37.7762 75.04 38.126C75.3924 38.4737 75.4514 38.708 75.4514 38.8344Z" stroke="#0092A6" stroke-width="2"/>
<path d="M16.2509 62.7521C16.1704 62.6545 16.0669 62.4363 16.1175 61.9438C16.1684 61.4484 16.3675 60.7847 16.7564 59.9495C17.5318 58.2839 18.9616 56.1461 20.9705 53.6716C24.9777 48.7355 31.1546 42.623 38.5534 36.5212C45.9522 30.4194 53.1288 25.5192 58.7375 22.5249C61.5493 21.0239 63.9202 20.0272 65.7029 19.583C66.5969 19.3603 67.2864 19.2912 67.7824 19.3355C68.2754 19.3796 68.47 19.5228 68.5504 19.6203C68.6309 19.7179 68.7344 19.9361 68.6838 20.4286C68.6329 20.9239 68.4338 21.5877 68.0449 22.4229C67.2695 24.0885 65.8397 26.2263 63.8308 28.7008C59.8236 33.6369 53.6467 39.7494 46.2479 45.8512C38.8491 51.953 31.6725 56.8532 26.0638 59.8475C23.252 61.3485 20.8811 62.3452 19.0984 62.7893C18.2044 63.0121 17.5149 63.0812 17.0189 63.0369C16.5259 62.9928 16.3313 62.8496 16.2509 62.7521Z" stroke="#0092A6" stroke-width="2"/>
<circle cx="41.556" cy="40.162" r="22.3797" transform="rotate(140.487 41.556 40.162)" fill="#04B0C7"/>
<path d="M17.0553 62.9659C14.5791 59.9634 23.7392 48.8486 38.6074 36.5867C53.4756 24.3248 66.3581 17.2146 68.8343 20.2171" stroke="#0092A6" stroke-width="2"/>
<circle cx="60.6717" cy="21.6958" r="2.08405" transform="rotate(140.487 60.6717 21.6958)" fill="#E3201B"/>
<circle cx="17.5892" cy="58.3633" r="2.08405" transform="rotate(140.487 17.5892 58.3633)" fill="#E3201B"/>
<path d="M75.3417 38.3744C73.7689 42.2139 62.9495 44.2052 42.8623 45.228C23.5901 45.228 11.1251 42.3133 7.70605 38.8192" stroke="#0092A6" stroke-width="2"/>
</svg>
