<svg width="1280" height="459" viewBox="0 0 1280 459" fill="none" xmlns="http://www.w3.org/2000/svg">
<path d="M1274.62 229.286C1274.62 258.848 1257.89 287.683 1226.13 314.554C1194.4 341.407 1148.18 365.815 1090.63 386.412C975.572 427.588 816.293 453.152 640.119 453.152C463.945 453.152 304.666 427.588 189.609 386.412C132.059 365.815 85.8404 341.407 54.1043 314.554C22.3458 287.683 5.61957 258.848 5.61957 229.286C5.61957 199.725 22.3458 170.89 54.1043 144.018C85.8404 117.166 132.059 92.7575 189.609 72.1613C304.666 30.9844 463.945 5.42039 640.119 5.42039C816.293 5.42039 975.572 30.9844 1090.63 72.1613C1148.18 92.7575 1194.4 117.166 1226.13 144.018C1257.89 170.89 1274.62 199.725 1274.62 229.286Z" stroke="#0092A6" stroke-width="10"/>
<path d="M803.551 229.286C803.551 319.547 730.38 392.718 640.119 392.718C549.858 392.718 476.687 319.547 476.687 229.286C476.687 139.025 549.858 65.8545 640.119 65.8545C730.38 65.8545 803.551 139.025 803.551 229.286Z" fill="#04B0C7"/>
<path d="M305.912 29.4413C305.912 37.6136 312.537 44.2385 320.709 44.2385C328.881 44.2385 335.506 37.6136 335.506 29.4413C335.506 21.2691 328.881 14.6442 320.709 14.6442C312.537 14.6442 305.912 21.2691 305.912 29.4413Z" fill="#E3201B"/>
<path d="M1030.42 399.537C1030.42 407.709 1037.04 414.334 1045.22 414.334C1053.39 414.334 1060.01 407.709 1060.01 399.537C1060.01 391.365 1053.39 384.74 1045.22 384.74C1037.04 384.74 1030.42 391.365 1030.42 399.537Z" fill="#E3201B"/>
<path d="M1105.77 334.975C1105.77 370.632 1134.68 399.537 1170.34 399.537C1205.99 399.537 1234.9 370.632 1234.9 334.975C1234.9 299.318 1205.99 270.412 1170.34 270.412C1134.68 270.412 1105.77 299.318 1105.77 334.975Z" fill="#04B0C7"/>
<path d="M1196.8 229.286C1196.8 252.622 1182.45 275.671 1154.59 297.371C1126.79 319.022 1086.26 338.737 1035.73 355.386C934.709 388.666 794.841 409.334 640.119 409.334C485.397 409.334 345.529 388.666 244.513 355.386C193.978 338.737 153.444 319.022 125.648 297.371C97.788 275.671 83.4354 252.622 83.4354 229.286C83.4354 205.951 97.788 182.902 125.648 161.202C153.444 139.551 193.978 119.835 244.513 103.187C345.529 69.9068 485.397 49.2385 640.119 49.2385C794.841 49.2385 934.709 69.9068 1035.73 103.187C1086.26 119.835 1126.79 139.551 1154.59 161.202C1182.45 182.902 1196.8 205.951 1196.8 229.286Z" stroke="#0092A6" stroke-width="10"/>
<path d="M1100.77 229.286C1100.77 244.708 1089.57 260.554 1066.42 275.879C1043.47 291.075 1009.93 304.954 968.039 316.686C884.323 340.132 768.384 354.698 640.119 354.698C511.854 354.698 395.915 340.132 312.199 316.686C270.307 304.954 236.767 291.075 213.817 275.879C190.672 260.554 179.463 244.708 179.463 229.286C179.463 213.865 190.672 198.018 213.817 182.693C236.767 167.497 270.307 153.619 312.199 141.886C395.915 118.441 511.854 103.875 640.119 103.875C768.384 103.875 884.323 118.441 968.039 141.886C1009.93 153.619 1043.47 167.497 1066.42 182.693C1089.57 198.018 1100.77 213.865 1100.77 229.286Z" stroke="#0092A6" stroke-width="10"/>
<path d="M781.911 181.086C781.911 235.544 730.38 263.067 640.119 263.067C549.858 263.067 498.89 235.544 498.89 181.086C498.89 126.627 545.368 71.9685 640.119 65.8545C730.38 65.8545 781.911 126.627 781.911 181.086Z" fill="#04B0C7"/>
<path d="M174.463 229.286C174.463 268.319 142.821 299.962 103.788 299.962C64.7556 299.962 33.1133 268.319 33.1133 229.286C33.1133 190.254 64.7556 158.611 103.788 158.611C142.821 158.611 174.463 190.254 174.463 229.286Z" fill="#FF574C"/>
</svg>
